<?xml version="1.0" encoding="UTF-8"?>
<svg xmlns="http://www.w3.org/2000/svg" xmlns:xlink="http://www.w3.org/1999/xlink" width="32px" height="32px" viewBox="0 0 32 32" version="1.1">
<g id="surface1">
<path style=" stroke:none;fill-rule:evenodd;fill:rgb(0%,0%,0%);fill-opacity:1;" d="M 28.667969 28.667969 L 3.332031 28.667969 C 1.859375 28.667969 0.667969 27.472656 0.667969 26 L 0.667969 6 C 0.667969 4.527344 1.859375 3.332031 3.332031 3.332031 L 28.667969 3.332031 C 30.140625 3.332031 31.332031 4.527344 31.332031 6 L 31.332031 26 C 31.332031 27.472656 30.140625 28.667969 28.667969 28.667969 Z M 30 6 C 30 5.265625 29.402344 4.667969 28.667969 4.667969 L 3.332031 4.667969 C 2.597656 4.667969 2 5.265625 2 6 L 2 10 L 30 10 Z M 30 11.332031 L 2 11.332031 L 2 26 C 2 26.734375 2.597656 27.332031 3.332031 27.332031 L 28.667969 27.332031 C 29.402344 27.332031 30 26.734375 30 26 Z M 27.332031 20.667969 L 26 20.667969 C 25.632812 20.667969 25.332031 20.367188 25.332031 20 L 25.332031 18.667969 C 25.332031 18.296875 25.632812 18 26 18 L 27.332031 18 C 27.703125 18 28 18.296875 28 18.667969 L 28 20 C 28 20.367188 27.703125 20.667969 27.332031 20.667969 Z M 27.332031 16 L 26 16 C 25.632812 16 25.332031 15.703125 25.332031 15.332031 L 25.332031 14 C 25.332031 13.632812 25.632812 13.332031 26 13.332031 L 27.332031 13.332031 C 27.703125 13.332031 28 13.632812 28 14 L 28 15.332031 C 28 15.703125 27.703125 16 27.332031 16 Z M 22 20.667969 L 20.667969 20.667969 C 20.296875 20.667969 20 20.367188 20 20 L 20 18.667969 C 20 18.296875 20.296875 18 20.667969 18 L 22 18 C 22.367188 18 22.667969 18.296875 22.667969 18.667969 L 22.667969 20 C 22.667969 20.367188 22.367188 20.667969 22 20.667969 Z M 22 16 L 20.667969 16 C 20.296875 16 20 15.703125 20 15.332031 L 20 14 C 20 13.632812 20.296875 13.332031 20.667969 13.332031 L 22 13.332031 C 22.367188 13.332031 22.667969 13.632812 22.667969 14 L 22.667969 15.332031 C 22.667969 15.703125 22.367188 16 22 16 Z M 16.667969 20.667969 L 15.332031 20.667969 C 14.964844 20.667969 14.667969 20.367188 14.667969 20 L 14.667969 18.667969 C 14.667969 18.296875 14.964844 18 15.332031 18 L 16.667969 18 C 17.035156 18 17.332031 18.296875 17.332031 18.667969 L 17.332031 20 C 17.332031 20.367188 17.035156 20.667969 16.667969 20.667969 Z M 16.667969 16 L 15.332031 16 C 14.964844 16 14.667969 15.703125 14.667969 15.332031 L 14.667969 14 C 14.667969 13.632812 14.964844 13.332031 15.332031 13.332031 L 16.667969 13.332031 C 17.035156 13.332031 17.332031 13.632812 17.332031 14 L 17.332031 15.332031 C 17.332031 15.703125 17.035156 16 16.667969 16 Z M 11.332031 25.332031 L 10 25.332031 C 9.632812 25.332031 9.332031 25.035156 9.332031 24.667969 L 9.332031 23.332031 C 9.332031 22.964844 9.632812 22.667969 10 22.667969 L 11.332031 22.667969 C 11.703125 22.667969 12 22.964844 12 23.332031 L 12 24.667969 C 12 25.035156 11.703125 25.332031 11.332031 25.332031 Z M 11.332031 20.667969 L 10 20.667969 C 9.632812 20.667969 9.332031 20.367188 9.332031 20 L 9.332031 18.667969 C 9.332031 18.296875 9.632812 18 10 18 L 11.332031 18 C 11.703125 18 12 18.296875 12 18.667969 L 12 20 C 12 20.367188 11.703125 20.667969 11.332031 20.667969 Z M 11.332031 16 L 10 16 C 9.632812 16 9.332031 15.703125 9.332031 15.332031 L 9.332031 14 C 9.332031 13.632812 9.632812 13.332031 10 13.332031 L 11.332031 13.332031 C 11.703125 13.332031 12 13.632812 12 14 L 12 15.332031 C 12 15.703125 11.703125 16 11.332031 16 Z M 6 25.332031 L 4.667969 25.332031 C 4.296875 25.332031 4 25.035156 4 24.667969 L 4 23.332031 C 4 22.964844 4.296875 22.667969 4.667969 22.667969 L 6 22.667969 C 6.367188 22.667969 6.667969 22.964844 6.667969 23.332031 L 6.667969 24.667969 C 6.667969 25.035156 6.367188 25.332031 6 25.332031 Z M 6 20.667969 L 4.667969 20.667969 C 4.296875 20.667969 4 20.367188 4 20 L 4 18.667969 C 4 18.296875 4.296875 18 4.667969 18 L 6 18 C 6.367188 18 6.667969 18.296875 6.667969 18.667969 L 6.667969 20 C 6.667969 20.367188 6.367188 20.667969 6 20.667969 Z M 15.332031 22.667969 L 16.667969 22.667969 C 17.035156 22.667969 17.332031 22.964844 17.332031 23.332031 L 17.332031 24.667969 C 17.332031 25.035156 17.035156 25.332031 16.667969 25.332031 L 15.332031 25.332031 C 14.964844 25.332031 14.667969 25.035156 14.667969 24.667969 L 14.667969 23.332031 C 14.667969 22.964844 14.964844 22.667969 15.332031 22.667969 Z M 15.332031 22.667969 "/>
</g>
</svg>
