<svg width="45" height="45" viewBox="0 0 45 45" fill="none" xmlns="http://www.w3.org/2000/svg">
<path d="M18.75 30V33.75C18.75 34.7446 19.1451 35.6984 19.8484 36.4017C20.5516 37.1049 21.5054 37.5 22.5 37.5H35.625C36.6196 37.5 37.5734 37.1049 38.2767 36.4017C38.9799 35.6984 39.375 34.7446 39.375 33.75V11.25C39.375 10.2554 38.9799 9.30161 38.2767 8.59835C37.5734 7.89509 36.6196 7.5 35.625 7.5L22.5 7.5C21.5054 7.5 20.5516 7.89509 19.8484 8.59835C19.1451 9.30161 18.75 10.2554 18.75 11.25V15" stroke="#01223F" stroke-width="3" stroke-linecap="round" stroke-linejoin="round"/>
<path d="M28.125 22.5L5.625 22.5M5.625 22.5L11.25 28.125M5.625 22.5L11.25 16.875" stroke="#01223F" stroke-width="3" stroke-linecap="round" stroke-linejoin="round"/>
</svg>
