<svg width="45" height="45" viewBox="0 0 45 45" fill="none" xmlns="http://www.w3.org/2000/svg">
<path d="M35.1562 37.5H9.84375C8.28724 37.5001 6.7897 36.9046 5.65832 35.8356C4.52694 34.7666 3.8475 33.3053 3.75938 31.7512L3.75 31.4062V11.7187C3.74987 10.6498 4.15555 9.62059 4.88507 8.83921C5.61458 8.05784 6.61352 7.58254 7.68 7.50938L7.96875 7.5H31.4062C32.4752 7.49987 33.5044 7.90555 34.2858 8.63507C35.0672 9.36458 35.5425 10.3635 35.6156 11.43L35.625 11.7187V13.125H37.0312C38.1002 13.1249 39.1294 13.5306 39.9108 14.2601C40.6922 14.9896 41.1675 15.9885 41.2406 17.055L41.25 17.3437V31.4062C41.2501 32.9628 40.6546 34.4603 39.5856 35.5917C38.5166 36.7231 37.0553 37.4025 35.5012 37.4906L35.1562 37.5ZM9.84375 34.6875H35.1562C35.98 34.6874 36.7736 34.3775 37.3795 33.8193C37.9853 33.2611 38.3589 32.4954 38.4263 31.6744L38.4375 31.4062V17.3437C38.4375 17.0039 38.3144 16.6756 38.0911 16.4195C37.8677 16.1634 37.5592 15.9968 37.2225 15.9506L37.0312 15.9375H35.625V30.4687C35.625 30.8086 35.5019 31.1369 35.2786 31.393C35.0552 31.6491 34.7467 31.8157 34.41 31.8619L34.2188 31.875C33.8789 31.875 33.5506 31.7519 33.2945 31.5286C33.0384 31.3052 32.8718 30.9967 32.8256 30.66L32.8125 30.4687V11.7187C32.8125 11.3789 32.6894 11.0506 32.4661 10.7945C32.2427 10.5384 31.9342 10.3718 31.5975 10.3256L31.4062 10.3125H7.96875C7.62893 10.3125 7.30061 10.4356 7.04451 10.6589C6.7884 10.8823 6.62184 11.1908 6.57562 11.5275L6.5625 11.7187V31.4062C6.56253 32.2297 6.8722 33.0231 7.43002 33.6289C7.98785 34.2346 8.75306 34.6085 9.57375 34.6762L9.84375 34.6875ZM22.9613 27.1875H28.5975C28.9538 27.1876 29.2968 27.323 29.5571 27.5662C29.8175 27.8094 29.9758 28.1424 30 28.4979C30.0243 28.8534 29.9128 29.2048 29.6879 29.4812C29.4631 29.7576 29.1417 29.9383 28.7887 29.9869L28.5975 30H22.9613C22.605 29.9999 22.262 29.8645 22.0016 29.6213C21.7413 29.3781 21.583 29.0451 21.5587 28.6896C21.5344 28.3341 21.646 27.9827 21.8708 27.7063C22.0957 27.4299 22.417 27.2492 22.77 27.2006L22.9613 27.1875ZM17.3306 20.6344C17.7036 20.6344 18.0613 20.7825 18.325 21.0463C18.5887 21.31 18.7369 21.6677 18.7369 22.0406V28.5937C18.7369 28.9667 18.5887 29.3244 18.325 29.5881C18.0613 29.8518 17.7036 30 17.3306 30H10.7775C10.4045 30 10.0469 29.8518 9.78313 29.5881C9.51941 29.3244 9.37125 28.9667 9.37125 28.5937V22.0406C9.37125 21.6677 9.51941 21.31 9.78313 21.0463C10.0469 20.7825 10.4045 20.6344 10.7775 20.6344H17.3306ZM15.9244 23.4469H12.1838V27.1875H15.9244V23.4469ZM22.9613 20.6344H28.5975C28.9538 20.6345 29.2968 20.7698 29.5571 21.0131C29.8175 21.2563 29.9758 21.5893 30 21.9448C30.0243 22.3002 29.9128 22.6517 29.6879 22.9281C29.4631 23.2044 29.1417 23.3852 28.7887 23.4337L28.5975 23.4469H22.9613C22.6024 23.4505 22.2558 23.3169 21.9923 23.0732C21.7288 22.8296 21.5684 22.4945 21.544 22.1365C21.5195 21.7785 21.6329 21.4247 21.8608 21.1475C22.0887 20.8703 22.414 20.6908 22.77 20.6456L22.9613 20.6344ZM10.7775 14.0662H28.5975C28.9563 14.0626 29.303 14.1963 29.5665 14.4399C29.83 14.6835 29.9903 15.0186 30.0148 15.3766C30.0392 15.7347 29.9259 16.0885 29.6979 16.3656C29.47 16.6428 29.1447 16.8223 28.7887 16.8675L28.5975 16.8787H10.7775C10.4212 16.8786 10.0782 16.7433 9.81789 16.5001C9.55755 16.2568 9.39924 15.9238 9.37495 15.5683C9.35067 15.2129 9.46222 14.8615 9.68706 14.5851C9.91191 14.3087 10.2333 14.1279 10.5862 14.0794L10.7775 14.0662Z" fill="#01223F"/>
</svg>
