<svg width="45" height="45" viewBox="0 0 45 45" fill="none" xmlns="http://www.w3.org/2000/svg">
<path fill-rule="evenodd" clip-rule="evenodd" d="M4.27142 16.8639C3.91863 16.6967 3.62055 16.4328 3.41182 16.1028C3.20309 15.7729 3.09229 15.3905 3.09229 15.0001C3.09229 14.6097 3.20309 14.2273 3.41182 13.8974C3.62055 13.5675 3.91863 13.3036 4.27142 13.1364L21.2964 5.08512C21.6724 4.90722 22.0832 4.81494 22.4992 4.81494C22.9152 4.81494 23.326 4.90722 23.702 5.08512L40.727 13.1364C42.1033 13.7851 42.2777 15.5776 41.2502 16.517V24.3751C41.2502 24.8724 41.0526 25.3493 40.701 25.7009C40.3494 26.0526 39.8724 26.2501 39.3752 26.2501C38.8779 26.2501 38.401 26.0526 38.0493 25.7009C37.6977 25.3493 37.5002 24.8724 37.5002 24.3751V18.3939L35.6252 19.2807V26.2501C35.6252 27.9737 35.2857 29.6804 34.6261 31.2728C33.9665 32.8652 32.9997 34.3121 31.7809 35.5309C30.5622 36.7497 29.1153 37.7164 27.5229 38.376C25.9305 39.0356 24.2238 39.3751 22.5002 39.3751C20.7766 39.3751 19.0698 39.0356 17.4774 38.376C15.885 37.7164 14.4382 36.7497 13.2194 35.5309C12.0006 34.3121 11.0338 32.8652 10.3742 31.2728C9.71465 29.6804 9.37517 27.9737 9.37517 26.2501V19.277L4.27142 16.8639ZM31.8752 16.8751H31.9333L35.8989 15.0001L22.5002 8.66262L9.10142 15.0001L13.067 16.8751H13.1252V16.9032L22.5002 21.3357L31.8752 16.9032V16.8751ZM21.2983 24.9151L13.1252 21.0526V26.2501C13.1252 28.7365 14.1129 31.1211 15.871 32.8792C17.6292 34.6374 20.0138 35.6251 22.5002 35.6251C24.9866 35.6251 27.3711 34.6374 29.1293 32.8792C30.8874 31.1211 31.8752 28.7365 31.8752 26.2501V21.0507L23.702 24.9151C23.3263 25.0927 22.9158 25.1849 22.5002 25.1849C22.0845 25.1849 21.6741 25.0927 21.2983 24.9151Z" fill="#01223F"/>
</svg>
